<?xml version="1.0" encoding="UTF-8"?>
<svg width="215px" height="47px" viewBox="0 0 215 47" version="1.1" xmlns="http://www.w3.org/2000/svg" xmlns:xlink="http://www.w3.org/1999/xlink">
    <title>logo</title>
    <g id="iOS" stroke="none" stroke-width="1" fill="none" fill-rule="evenodd">
        <g id="logo">
            <rect id="Rectangle" fill-opacity="0.01" fill="#FFFFFF" x="0" y="0" width="215" height="47"></rect>
            <g id="logogz-(1)" transform="translate(4.000000, 0.000000)" fill-rule="nonzero">
                <polygon id="Path" fill="#22201E" points="192.458933 32.0953804 207.413043 32.0953804 207.413043 26.9324051 198.780944 26.9324051 198.780944 22.5054007 206.418444 22.5054007 206.418444 17.1811819 198.780944 17.1811819 198.780944 13.2363112 207.413043 13.2363112 207.413043 8.0094768 192.458933 8.0094768"></polygon>
                <polygon id="Path" fill="#22201E" points="189.41447 32.1273098 189.41447 8.04140615 183.092459 8.04140615 183.092459 19.4114471 171.700068 8.04140615 169.131352 8.04140615 169.131352 32.1273098 175.454959 32.1273098 175.454959 20.7253399 186.815421 32.1273098"></polygon>
                <polygon id="Path" fill="#22201E" points="127.888213 8.04140615 107.317731 8.04140615 107.317731 14.3905573 116.944429 14.3905573 106.70788 32.0953804 126.957473 32.0953804 126.957473 25.7765623 117.651665 25.7765623"></polygon>
                <path d="M12.5833558,19.1703804 L12.5833558,23.404212 L17.235462,23.404212 C16.2408627,24.8474185 14.4767663,25.7765623 12.5833558,25.7765623 C9.6298913,25.7765623 6.903125,23.3722826 6.903125,20.0675949 C6.903125,16.7485395 9.56603261,14.3282949 12.5833558,14.3282949 C14.2197352,14.3282949 15.5671536,14.9748641 16.5936819,15.9423232 L21.054212,11.5057406 C18.8734377,9.35689528 15.8880435,8.0094768 12.5833558,8.0094768 C5.94045506,8.0094768 0.58111413,13.3975543 0.58111413,20.0675949 C0.58111413,26.7073029 5.94045506,32.0953804 12.5833558,32.0953804 C19.2262569,32.0953804 24.6175272,26.7073029 24.6175272,20.0675949 L24.6175272,19.1703804 L12.5833558,19.1703804 Z M27.120788,20.101121 C27.120788,26.7711616 32.480129,32.1273098 39.1230297,32.1273098 C45.7659308,32.1273098 51.1572011,26.7711616 51.1572011,20.101121 C51.1572011,13.4294837 45.7659308,8.0094768 39.1230297,8.0094768 C32.480129,8.0094768 27.120788,13.4294837 27.120788,20.101121 Z M44.8671196,20.0675949 C44.8671196,23.227004 42.3,25.840421 39.1230297,25.840421 C35.9779891,25.840421 33.4108696,23.227004 33.4108696,20.0675949 C33.4108696,16.8714674 35.9779891,14.2947688 39.1230297,14.2947688 C42.3,14.2947688 44.8671196,16.8714674 44.8671196,20.0675949 Z M54.5912025,20.101121 C54.5912025,26.7711616 59.9505435,32.1273098 66.5934442,32.1273098 C73.2363449,32.1273098 78.6276156,26.7711616 78.6276156,20.101121 C78.6276156,13.4294837 73.2363449,8.0094768 66.5934442,8.0094768 C59.9505435,8.0094768 54.5912025,13.4294837 54.5912025,20.101121 Z M72.3375341,20.0675949 C72.3375341,23.227004 69.7704145,25.840421 66.5934442,25.840421 C63.4484036,25.840421 60.8812841,23.227004 60.8812841,20.0675949 C60.8812841,16.8714674 63.4484036,14.2947688 66.5934442,14.2947688 C69.7704145,14.2947688 72.3375341,16.8714674 72.3375341,20.0675949 Z M83.0242866,32.0953804 L91.9453464,32.0953804 C98.5882471,32.0953804 103.979518,26.6961275 103.979518,20.0516304 C103.979518,13.4087297 98.5882471,8.0094768 91.9453464,8.0094768 L83.0242866,8.0094768 L83.0242866,32.0953804 Z M89.3143681,14.4017322 L91.9772757,14.4017322 C95.1223167,14.4017322 97.6894362,16.9672554 97.6894362,20.0835598 C97.6894362,23.2333898 95.1223167,25.798913 91.9772757,25.798913 L89.3143681,25.798913 L89.3143681,14.4017322 Z" id="Shape" fill="#E31E24"></path>
                <path d="M100.855231,12.0692935 C98.6537025,9.64266304 95.4767322,8.11803658 91.9453464,8.11803658 L83.0242866,8.11803658 L83.0242866,32.0953804 L89.3143681,25.0310123 L89.3143681,14.510292 L91.9772757,14.510292 C93.8690899,14.510292 95.5517663,15.4394362 96.592663,16.8570993 L100.855231,12.0692935 Z" id="Path" fill="#D1212C"></path>
                <path d="M63.0636551,24.6223167 C61.7290079,23.560666 60.866916,21.914708 60.866916,20.0851561 C60.866916,16.8874319 63.4340355,14.3123301 66.5790761,14.3123301 C68.1947011,14.3123301 69.6522757,14.9780573 70.6947688,16.0524797 L74.8727243,11.3588656 C72.7143004,9.29463336 69.7943616,8.02544168 66.5790761,8.02544168 C59.9377717,8.02544168 54.5784308,13.4454486 54.5784308,20.1170855 C54.5784308,23.8336616 56.2419496,27.1399457 58.8633493,29.3414743 L63.0636551,24.6223167 Z" id="Path" fill="#D1212C"></path>
                <path d="M12.5833558,19.1703804 L12.5833558,22.9603942 L15.958288,19.1703804 L12.5833558,19.1703804 Z M10.4552648,25.3519022 C8.43892683,24.5217391 6.903125,22.5485054 6.903125,20.0675949 C6.903125,16.7485395 9.56603261,14.3282949 12.5833558,14.3282949 C14.2197352,14.3282949 15.5671536,14.9748641 16.5936819,15.9423232 L21.054212,11.5057406 C18.8734377,9.35689528 15.8880435,8.0094768 12.5833558,8.0094768 C5.94045506,8.0094768 0.58111413,13.3975543 0.58111413,20.0675949 C0.58111413,24.330163 2.78902863,28.0754753 6.12724205,30.2115489 L10.4552648,25.3519022 Z" id="Shape" fill="#D1212C"></path>
                <path d="M35.6076087,24.6063518 C34.2713656,23.5447011 33.4108696,21.8971467 33.4108696,20.0675949 C33.4108696,16.8714674 35.9779891,14.2947688 39.1230297,14.2947688 C40.7370583,14.2947688 42.1946334,14.9620924 43.2371265,16.0365148 L47.4166779,11.3429007 C45.2566576,9.27866848 42.3367189,8.0094768 39.1230297,8.0094768 C32.480129,8.0094768 27.120788,13.4294837 27.120788,20.101121 C27.120788,23.8161007 28.7843073,27.1239812 31.4057065,29.3255094 L35.6076087,24.6063518 Z" id="Path" fill="#D1212C"></path>
                <path d="M12.9186141,19.5056384 L12.9186141,23.0689536 L17.8724525,23.0689536 L17.5116507,23.5941917 C16.9784308,24.3668819 16.2376699,25.0022757 15.3787703,25.439708 C14.5358355,25.8691576 13.5747623,26.1118207 12.5833558,26.1118207 C10.9773098,26.1118207 9.43512249,25.4413043 8.31440217,24.3141986 C7.25275146,23.2461616 6.56786664,21.7694293 6.56786664,20.0675949 C6.56786664,18.3513928 7.24317245,16.860292 8.30641994,15.7842732 L8.30641994,15.7826768 C9.41756124,14.6603602 10.9517663,13.9930366 12.5833558,13.9930366 C13.4087297,13.9930366 14.1686482,14.1494906 14.855129,14.4256793 C15.4969091,14.6843073 16.0748301,15.0467051 16.5825069,15.4825406 L20.5768681,11.5089333 C19.5439536,10.5478602 18.3402174,9.76559093 17.0183424,9.22119565 C15.6517663,8.65764277 14.1558765,8.34473516 12.5833558,8.34473516 C9.35370255,8.34473516 6.43695652,9.65383842 4.3280232,11.7723507 C2.21908988,13.8924594 0.916372487,16.8235732 0.916372487,20.0675949 C0.916372487,23.2988449 2.22068624,26.2235732 4.3328123,28.3404891 C6.44014925,30.4526156 9.35529891,31.7601225 12.5833558,31.7601225 C15.811413,31.7601225 18.7361413,30.4510188 20.8546536,28.3341033 C22.9715692,26.2187841 24.2822688,23.2956522 24.2822688,20.0675949 L24.2822688,19.5056384 L12.9186141,19.5056384 Z M12.2480978,23.404212 L12.2480978,18.8351225 L24.9527855,18.8351225 L24.9527855,20.0675949 C24.9527855,23.4808424 23.5670514,26.5716033 21.3288043,28.808254 C19.0889605,31.0449051 15.9966033,32.4306384 12.5833558,32.4306384 C9.17170506,32.4306384 6.08892683,31.0465015 3.85866158,28.8114471 C1.6252036,26.5731996 0.245855774,23.4808424 0.245855774,20.0675949 C0.245855774,16.6415761 1.62360723,13.542833 3.85387249,11.3013928 C6.0857337,9.05995255 9.1701087,7.67421885 12.5833558,7.67421885 C14.2420855,7.67421885 15.8241848,8.00628407 17.2721808,8.60336267 C18.7824388,9.22598516 20.1442253,10.1391645 21.2888928,11.2662703 L21.5299594,11.5041442 L21.2904891,11.7420178 L16.8299594,16.1786007 L16.6000681,16.4068953 L16.3653873,16.1849862 C15.8593073,15.7076428 15.2702105,15.3133152 14.6060801,15.0467051 C13.9994225,14.8024457 13.3225203,14.6619565 12.5833558,14.6619565 C11.1337638,14.6619565 9.77038043,15.2574388 8.78376379,16.2536344 C7.8386551,17.2099185 7.23838336,18.536583 7.23838336,20.0675949 C7.23838336,21.5826428 7.84504056,22.8949388 8.78855289,23.8432406 C9.78474854,24.8458221 11.1561141,25.4413043 12.5833558,25.4413043 C13.4677989,25.4413043 14.3235054,25.2257811 15.0754417,24.842629 C15.6310123,24.5600543 16.1307065,24.1848844 16.5409985,23.7394703 L12.2480978,23.7394703 L12.2480978,23.404212 Z M27.4560464,20.101121 C27.4560464,23.3419496 28.757167,26.2650815 30.864504,28.3756116 C32.9734377,30.489334 35.8917797,31.7920514 39.1230297,31.7920514 C42.3558765,31.7920514 45.2837975,30.4877377 47.4023098,28.3708221 C49.5144362,26.2586957 50.8219427,23.3387569 50.8219427,20.101121 C50.8219427,16.8555029 49.5112431,13.9164061 47.3927312,11.7883152 C45.2758152,9.66182065 42.351087,8.34473516 39.1230297,8.34473516 C35.8965692,8.34473516 32.9814199,9.66022429 30.8724862,11.7835257 C28.7603602,13.9116166 27.4560464,16.8539061 27.4560464,20.101121 Z M30.3903533,28.848166 C28.1616848,26.614708 26.7855297,23.5255435 26.7855297,20.101121 C26.7855297,16.6719091 28.1648775,13.5619906 30.3983355,11.3125681 C32.6286007,9.06633842 35.711379,7.67421885 39.1230297,7.67421885 C42.5362772,7.67421885 45.6286344,9.06793478 47.8668819,11.3173572 C50.1067253,13.5667797 51.4924594,16.6735054 51.4924594,20.101121 C51.4924594,23.5239471 50.1099185,26.6115148 47.8764605,28.8449728 C45.6366166,31.0816235 42.5410667,32.4625681 39.1230297,32.4625681 C35.7081862,32.4625681 32.6222145,31.0832203 30.3903533,28.848166 Z M45.2023775,20.0675949 C45.2023775,21.7422895 44.5190899,23.2733014 43.4159308,24.3828464 C42.3159645,25.4876018 40.7993207,26.1756793 39.1230297,26.1756793 C37.4595109,26.1756793 35.9492529,25.4860054 34.8540761,24.3796536 C33.7557065,23.2717051 33.0756116,21.7422895 33.0756116,20.0675949 C33.0756116,18.380129 33.7525138,16.8555029 34.8444971,15.7523439 C35.9412703,14.6443953 37.4563181,13.9611072 39.1230297,13.9611072 C40.8041102,13.9611072 42.3239471,14.6427989 43.423913,15.7491507 C44.523879,16.8523098 45.2023775,18.3785326 45.2023775,20.0675949 Z M42.9417797,23.9118884 C43.9236072,22.9252717 44.5318616,21.560292 44.5318616,20.0675949 C44.5318616,18.5621265 43.9283967,17.2019362 42.9497623,16.2201087 C41.9727243,15.2366848 40.6189199,14.6300272 39.1230297,14.6300272 C37.6399116,14.6300272 36.2940899,15.2382811 35.3218409,16.2217051 L35.3218409,16.2233014 C34.3495924,17.2067253 33.7461275,18.5653192 33.7461275,20.0675949 C33.7461275,21.5586957 34.3527855,22.9204822 35.3298232,23.9086957 C36.3036685,24.8921196 37.6462975,25.5067594 39.1230297,25.5067594 C40.6141304,25.5067594 41.9631453,24.8937159 42.9417797,23.9118884 Z M54.9264605,20.101121 C54.9264605,23.3419496 56.2275815,26.2650815 58.3349185,28.3756116 C60.4438518,30.489334 63.3621942,31.7920514 66.5934442,31.7920514 C69.8262906,31.7920514 72.754212,30.4877377 74.8727243,28.3708221 C76.9848507,26.2586957 78.2923572,23.3387569 78.2923572,20.101121 C78.2923572,16.8555029 76.9816576,13.9164061 74.8631453,11.7883152 C72.7462297,9.66182065 69.8215015,8.34473516 66.5934442,8.34473516 C63.3669837,8.34473516 60.451834,9.66022429 58.3429007,11.7835257 C56.2307747,13.9116166 54.9264605,16.8539061 54.9264605,20.101121 Z M57.8607678,28.848166 C55.6320993,26.614708 54.2559442,23.5255435 54.2559442,20.101121 C54.2559442,16.6719091 55.635292,13.5619906 57.86875,11.3125681 C60.0990148,9.06633842 63.1817935,7.67421885 66.5934442,7.67421885 C70.0066917,7.67421885 73.0990489,9.06793478 75.3372964,11.3173572 C77.5771398,13.5667797 78.9628735,16.6735054 78.9628735,20.101121 C78.9628735,23.5239471 77.580333,26.6115148 75.346875,28.8449728 C73.1070311,31.0816235 70.0114812,32.4625681 66.5934442,32.4625681 C63.1786007,32.4625681 60.092629,31.0832203 57.8607678,28.848166 Z M72.672792,20.0675949 C72.672792,21.7422895 71.989504,23.2733014 70.8863449,24.3828464 C69.786379,25.4876018 68.2697352,26.1756793 66.5934442,26.1756793 C64.9299254,26.1756793 63.419667,25.4860054 62.3244906,24.3796536 C61.226121,23.2717051 60.5460257,21.7422895 60.5460257,20.0675949 C60.5460257,18.380129 61.2229279,16.8555029 62.3149116,15.7523439 C63.4116848,14.6443953 64.9267322,13.9611072 66.5934442,13.9611072 C68.2745247,13.9611072 69.7943616,14.6427989 70.8943275,15.7491507 C71.9942935,16.8523098 72.672792,18.3785326 72.672792,20.0675949 Z M70.4121942,23.9118884 C71.3940217,22.9252717 72.0022757,21.560292 72.0022757,20.0675949 C72.0022757,18.5621265 71.3988112,17.2019362 70.4201768,16.2201087 C69.4431384,15.2366848 68.089334,14.6300272 66.5934442,14.6300272 C65.1103261,14.6300272 63.764504,15.2382811 62.7922554,16.2217051 L62.7922554,16.2233014 C61.8184101,17.2067253 61.216542,18.5653192 61.216542,20.0675949 C61.216542,21.5586957 61.8231996,22.9204822 62.8002377,23.9086957 C63.774083,24.8921196 65.116712,25.5067594 66.5934442,25.5067594 C68.0845449,25.5067594 69.4335598,24.8937159 70.4121942,23.9118884 Z M83.3595449,31.7601225 L91.9453464,31.7601225 C95.175,31.7601225 98.0997283,30.4478261 100.216644,28.3309101 C102.33356,26.2108014 103.644259,23.2828804 103.644259,20.0516304 C103.644259,16.8219768 102.33356,13.8940558 100.216644,11.7739471 C98.0997283,9.65543478 95.175,8.34473516 91.9453464,8.34473516 L83.3595449,8.34473516 L83.3595449,31.7601225 Z M91.9453464,32.4306384 L82.6890286,32.4306384 L82.6890286,7.67421885 L91.9453464,7.67421885 C95.3585939,7.67421885 98.4509511,9.06154891 100.690795,11.3029891 C102.929042,13.5444293 104.314776,16.6383834 104.314776,20.0516304 C104.314776,23.4664743 102.929042,26.5604279 100.690795,28.8018681 C98.4509511,31.0433083 95.3585939,32.4306384 91.9453464,32.4306384 Z M89.3143681,14.0680707 L91.9772757,14.0680707 C93.6407949,14.0680707 95.1510529,14.7449728 96.2462297,15.8353602 C97.3430029,16.9273439 98.0246942,18.4328123 98.0246942,20.0835598 C98.0246942,21.7502717 97.3461957,23.2621265 96.2510188,24.3573029 C95.154246,25.4540761 93.6423913,26.134171 91.9772757,26.134171 L88.9791102,26.134171 L88.9791102,14.0680707 L89.3143681,14.0680707 Z M91.9772757,14.7369906 L89.6496265,14.7369906 L89.6496265,25.4636551 L91.9772757,25.4636551 C93.4587975,25.4636551 94.8030232,24.8601902 95.7768681,23.8863449 C96.7507134,22.9125 97.3541779,21.5666779 97.3541779,20.0835598 C97.3541779,18.6164061 96.7491166,17.2785667 95.7736754,16.3095109 C94.8014268,15.3404551 93.4572011,14.7369906 91.9772757,14.7369906 Z" id="Shape" fill="#E73A40"></path>
                <path d="M147.922283,0.553974287 C137.550034,0.553974287 129.14144,8.95618186 129.14144,19.3220449 C129.14144,24.5009852 132.688791,30.2195311 136.699117,35.0296877 L141.753533,29.3526493 C138.373811,27.2788384 136.119599,23.551087 136.119599,19.2965015 C136.119599,12.7813181 141.403906,7.5002036 147.922283,7.5002036 C151.686753,7.5002036 155.039334,9.26110723 157.199355,12.0038384 L161.870618,6.75784637 C158.433424,2.94867537 153.458832,0.553974287 147.922283,0.553974287 Z" id="Path" fill="#D1212C"></path>
                <path d="M136.699117,35.0296877 C141.917969,41.292629 147.922283,46.0181725 147.922283,46.0181725 C147.922283,46.0181725 166.701529,31.2396739 166.701529,19.3220449 C166.701529,14.489538 164.873573,10.0848844 161.870618,6.75784637 L157.199355,12.0038384 C158.781454,14.0105978 159.724966,16.5425949 159.724966,19.2965015 C159.724966,25.8100884 154.440659,31.0912025 147.922283,31.0912025 C145.660088,31.0912025 143.547962,30.4558083 141.753533,29.3526493 L136.699117,35.0296877 Z" id="Path" fill="#E31E24"></path>
                <path d="M128.812568,19.3220449 C128.812568,14.0473167 130.951834,9.27387897 134.409783,5.81752717 C137.867731,2.36117537 142.644362,0.223505435 147.922283,0.223505435 C150.682575,0.223505435 153.308764,0.811005435 155.681114,1.86627028 C158.144463,2.96144711 160.334817,4.5627036 162.116474,6.53753407 C163.669837,8.26012249 164.916678,10.2700746 165.765999,12.4779891 C166.58339,14.6044837 167.031997,16.9129753 167.031997,19.3220449 C167.031997,31.400917 148.18091,46.2320993 148.12663,46.2752036 L147.922283,46.4364471 L147.717935,46.2752036 C147.700374,46.2608355 141.686481,41.5289061 136.445279,35.240421 C134.425747,32.8169837 132.522758,30.1652515 131.124253,27.4640286 C129.712975,24.7420514 128.812568,21.9673913 128.812568,19.3220449 Z M134.875951,6.28369565 C131.537738,9.6203123 129.471909,14.2293138 129.471909,19.3220449 C129.471909,21.854042 130.34358,24.528125 131.70856,27.1622964 C133.086311,29.8188181 134.960564,32.4322352 136.951359,34.8205504 C141.5875,40.3842391 146.833492,44.7170514 147.920686,45.5967051 C149.941814,43.9651156 166.37106,30.372792 166.37106,19.3220449 C166.37106,16.9896058 165.940014,14.7625341 165.151359,12.7126699 C164.333967,10.584579 163.130231,8.64487103 161.626359,6.97815907 C159.90377,5.07038043 157.791644,3.52340363 155.412908,2.46654202 C153.12517,1.44959239 150.591576,0.882846365 147.922283,0.882846365 C142.827955,0.882846365 138.214165,2.94707901 134.875951,6.28369565 Z M147.922283,6.83128407 C141.033526,6.83128407 135.449083,12.4109377 135.449083,19.2965015 C135.449083,23.7251018 137.762364,27.6109036 141.244259,29.8220109 C143.175985,31.0480978 145.465319,31.7617189 147.922283,31.7617189 C154.81104,31.7617189 160.395482,26.1804689 160.395482,19.2965015 C160.395482,16.3190899 159.349796,13.5875341 157.606454,11.4434783 C155.320312,8.63050292 151.832031,6.83128407 147.922283,6.83128407 Z M141.753533,29.354246 C138.373811,27.2788384 136.119599,23.551087 136.119599,19.2949051 C136.119599,12.7813181 141.403906,7.5002036 147.922283,7.5002036 C151.686753,7.5002036 155.039334,9.26110723 157.199355,12.0038384 C158.781454,14.0105978 159.724966,16.5425949 159.724966,19.2949051 C159.724966,25.8100884 154.440659,31.0912025 147.922283,31.0912025 C145.661685,31.0912025 143.547962,30.4558083 141.753533,29.354246 Z" id="Shape" fill="#E73A40"></path>
                <path d="M0.916372487,46.4572011 L2.38352571,46.4572011 L2.496875,43.0822688 L3.61919168,45.0507134 L4.45733696,45.0507134 L5.46790071,43.0822688 L5.60519711,46.4572011 L7.15217391,46.4572011 L6.88396739,40.7003399 L5.41521739,40.7003399 L4.04225543,43.211583 L2.64375,40.7003399 L1.18298223,40.7003399 L0.916372487,46.4572011 Z M7.58322031,46.4572011 L9.16372283,46.4572011 L9.54368186,45.2662362 L11.4690217,45.2662362 L11.8409985,46.4572011 L13.4901493,46.4572011 L11.4530573,40.7003399 L9.6985395,40.7003399 L7.58322031,46.4572011 Z M9.8549931,44.1534985 L10.5191235,42.0381793 L11.1593073,44.1534985 L9.8549931,44.1534985 Z M14.0425272,46.4572011 L15.5719427,46.4572011 L15.5719427,42.0461616 L18.1103261,42.0461616 L18.1103261,40.7003399 L14.0425272,40.7003399 L14.0425272,46.4572011 Z M17.3679689,46.4572011 L18.9484714,46.4572011 L19.3284308,45.2662362 L21.2553666,45.2662362 L21.6257471,46.4572011 L23.2764946,46.4572011 L21.2378058,40.7003399 L19.4848844,40.7003399 L17.3679689,46.4572011 Z M19.6397421,44.1534985 L20.3054689,42.0381793 L20.9440558,44.1534985 L19.6397421,44.1534985 Z M24.8394362,44.1359377 L25.8835257,44.1359377 C26.2730638,44.1359377 26.6003399,44.2556725 26.6003399,44.6787362 C26.6003399,45.0938181 26.2634852,45.2742189 25.6759852,45.2742189 C24.9942935,45.2742189 24.6063518,44.9980297 24.2950406,44.6883152 L23.3962297,45.5679689 C23.9326428,46.2416779 24.8474185,46.5960939 25.7462297,46.5960939 C27.1016304,46.5960939 28.0770721,45.9990148 28.0770721,44.9293819 C28.0770721,44.2987772 27.7242529,43.738417 27.0058424,43.5404551 C27.5598167,43.3249319 27.8870924,42.8236413 27.8870924,42.1674931 C27.8870924,41.1313859 26.9547554,40.5534645 25.7797554,40.5534645 C24.9942935,40.5534645 24.1050612,40.8647757 23.5526833,41.5799931 L24.4498982,42.4356996 C24.7532268,42.1164061 25.0900815,41.8737431 25.6424594,41.8737431 C26.1692935,41.8737431 26.4359036,42.0557406 26.4359036,42.3925949 C26.4359036,42.7629753 26.1166102,42.8747283 25.6935464,42.8747283 L24.8394362,42.8747283 L24.8394362,44.1359377 Z M33.958458,40.7003399 L32.5679348,40.7003399 L30.3568275,43.9970449 L30.3568275,40.7003399 L28.8465692,40.7003399 L28.8465692,46.4572011 L30.1508834,46.4572011 L32.4481996,43.064708 L32.4481996,46.4572011 L33.958458,46.4572011 L33.958458,40.7003399 Z M34.9961616,46.4572011 L36.5239812,46.4572011 L36.5239812,44.2045855 L38.648879,44.2045855 L38.648879,46.4572011 L40.1766986,46.4572011 L40.1766986,40.7003399 L38.648879,40.7003399 L38.648879,42.8060801 L36.5239812,42.8060801 L36.5239812,40.7003399 L34.9961616,40.7003399 L34.9961616,46.4572011 Z M42.7773439,46.4572011 L45.1257471,46.4572011 C46.4125,46.4572011 47.2586275,45.8186141 47.2586275,44.6356319 C47.2586275,43.4877717 46.4907268,42.7885188 45.1688518,42.7885188 L44.2716373,42.7885188 L44.2716373,41.9599525 L46.7844768,41.9599525 L46.7844768,40.7003399 L42.7773439,40.7003399 L42.7773439,46.4572011 Z M44.9964333,43.9890623 C45.4881453,43.9890623 45.7563518,44.239708 45.7563518,44.6100884 C45.7563518,44.9980297 45.540829,45.2486754 44.9884511,45.2486754 L44.2716373,45.2486754 L44.2716373,43.9890623 L44.9964333,43.9890623 Z M48.0632471,46.4572011 L50.282337,46.4572011 C51.5690899,46.4572011 52.4152174,45.7834921 52.4152174,44.5063181 C52.4152174,43.297792 51.6297554,42.5298913 50.3254417,42.5298913 L49.5559442,42.5298913 L49.5559442,40.7003399 L48.0632471,40.7003399 L48.0632471,46.4572011 Z M50.1530232,43.7304348 C50.6367529,43.7304348 50.9129417,44.0401493 50.9129417,44.4807747 C50.9129417,44.964504 50.6622964,45.2486754 50.1434442,45.2486754 L49.5559442,45.2486754 L49.5559442,43.7304348 L50.1530232,43.7304348 Z M53.1400138,46.4572011 L54.6694293,46.4572011 L54.6694293,40.7003399 L53.1400138,40.7003399 L53.1400138,46.4572011 Z M57.1311819,46.4572011 L58.6765623,46.4572011 L58.6765623,42.0381793 L60.4294837,42.0381793 L60.4294837,40.7003399 L55.3606996,40.7003399 L55.3606996,42.0381793 L57.1311819,42.0381793 L57.1311819,46.4572011 Z M63.6335939,46.5960939 C65.3705504,46.5960939 66.630163,45.3173232 66.630163,43.5659985 C66.630163,41.8050949 65.3705504,40.5454822 63.6335939,40.5454822 C61.9062159,40.5454822 60.6370247,41.8050949 60.6370247,43.5659985 C60.6370247,45.3173232 61.9062159,46.5960939 63.6335939,46.5960939 Z M63.6335939,45.1624659 C62.736379,45.1624659 62.2175272,44.4456522 62.2175272,43.5659985 C62.2175272,42.6847485 62.736379,41.9695311 63.6335939,41.9695311 C64.5324051,41.9695311 65.0496601,42.6847485 65.0496601,43.5659985 C65.0496601,44.4456522 64.5324051,45.1624659 63.6335939,45.1624659 Z M67.4427648,46.4572011 L69.7831862,46.4572011 C71.3285667,46.4572011 72.1411685,45.9559101 72.1411685,44.8080504 C72.1411685,43.9539402 71.4243547,43.5404551 70.991712,43.4015623 C71.3381453,43.2898098 71.8298572,42.8491848 71.8298572,42.2026156 C71.8298572,41.4778192 71.4067935,40.7003399 69.7831862,40.7003399 L67.4427648,40.7003399 L67.4427648,46.4572011 Z M68.9370583,43.013621 L68.9370583,41.7875341 L69.6011888,41.7875341 C69.9300612,41.7875341 70.2924594,41.9264268 70.2924594,42.4181384 C70.2924594,42.8587638 69.9556047,43.013621 69.6011888,43.013621 L68.9370583,43.013621 Z M68.9370583,45.3700069 L68.9370583,44.0066235 L69.714538,44.0066235 C70.0673572,44.0066235 70.5862094,44.1008152 70.5862094,44.6787362 C70.5862094,45.3013587 70.0673572,45.3700069 69.714538,45.3700069 L68.9370583,45.3700069 Z M75.5528192,46.5960939 C77.2881793,46.5960939 78.5493884,45.3173232 78.5493884,43.5659985 C78.5493884,41.8050949 77.2881793,40.5454822 75.5528192,40.5454822 C73.8254417,40.5454822 72.5546536,41.8050949 72.5546536,43.5659985 C72.5546536,45.3173232 73.8254417,46.5960939 75.5528192,46.5960939 Z M75.5528192,45.1624659 C74.6540079,45.1624659 74.1351561,44.4456522 74.1351561,43.5659985 C74.1351561,42.6847485 74.6540079,41.9695311 75.5528192,41.9695311 C76.4500341,41.9695311 76.9688859,42.6847485 76.9688859,43.5659985 C76.9688859,44.4456522 76.4500341,45.1624659 75.5528192,45.1624659 Z M84.473879,40.7003399 L83.0833558,40.7003399 L80.8722485,43.9970449 L80.8722485,40.7003399 L79.3603942,40.7003399 L79.3603942,46.4572011 L80.664708,46.4572011 L82.9620247,43.064708 L82.9620247,46.4572011 L84.473879,46.4572011 L84.473879,40.7003399 Z M80.5098507,39.008084 C80.5098507,39.8286685 81.1580163,40.294837 81.925917,40.294837 C82.6954145,40.294837 83.3515623,39.8286685 83.3515623,39.008084 L82.3234377,39.008084 C82.3234377,39.2411685 82.1765623,39.4056047 81.925917,39.4056047 C81.6848507,39.4056047 81.5379753,39.2411685 81.5283967,39.008084 L80.5098507,39.008084 Z M88.4985732,46.4572011 L90.0439536,46.4572011 L90.0439536,42.0381793 L91.796875,42.0381793 L91.796875,40.7003399 L86.7280909,40.7003399 L86.7280909,42.0381793 L88.4985732,42.0381793 L88.4985732,46.4572011 Z M92.4881453,46.4572011 L96.8145721,46.4572011 L96.8145721,45.1369225 L94.0175612,45.1369225 L94.0175612,44.1534985 L96.1680029,44.1534985 L96.1680029,42.9098507 L94.0175612,42.9098507 L94.0175612,42.0206181 L96.634171,42.0206181 L96.634171,40.7003399 L92.4881453,40.7003399 L92.4881453,46.4572011 Z M97.1434442,46.4572011 L98.8197352,46.4572011 L99.9324728,44.6883152 L101.081929,46.4572011 L102.989708,46.4572011 L100.823301,43.3680366 L102.609749,40.7003399 L100.909511,40.7003399 L99.9851561,42.1930366 L99.0256793,40.7003399 L97.1434442,40.7003399 L99.1039061,43.5133152 L97.1434442,46.4572011 Z M103.561243,46.4572011 L105.089062,46.4572011 L105.089062,44.2045855 L107.21396,44.2045855 L107.21396,46.4572011 L108.74178,46.4572011 L108.74178,40.7003399 L107.21396,40.7003399 L107.21396,42.8060801 L105.089062,42.8060801 L105.089062,40.7003399 L103.561243,40.7003399 L103.561243,46.4572011 Z M114.891372,40.7003399 L113.500849,40.7003399 L111.289742,43.9970449 L111.289742,40.7003399 L109.779484,40.7003399 L109.779484,46.4572011 L111.082201,46.4572011 L113.379518,43.064708 L113.379518,46.4572011 L114.891372,46.4572011 L114.891372,40.7003399 Z M117.456895,44.2045855 L117.819293,44.2045855 C118.242357,44.2045855 118.414776,44.4632134 118.614334,44.8687159 L119.407779,46.4572011 L121.238927,46.4572011 L120.134171,44.4121265 C119.865964,43.9204145 119.572214,43.6170855 119.054959,43.454246 C119.468444,43.2818275 119.805299,43.0311819 120.081488,42.4788043 L120.980299,40.7003399 L119.296026,40.7003399 L118.579212,42.1754753 C118.371671,42.6161007 118.156148,42.8060801 117.715523,42.8060801 L117.456895,42.8060801 L117.456895,40.7003399 L115.92748,40.7003399 L115.92748,46.4572011 L117.456895,46.4572011 L117.456895,44.2045855 Z M126.957473,40.7003399 L125.56695,40.7003399 L123.355842,43.9970449 L123.355842,40.7003399 L121.843988,40.7003399 L121.843988,46.4572011 L123.148301,46.4572011 L125.445618,43.064708 L125.445618,46.4572011 L126.957473,46.4572011 L126.957473,40.7003399 Z" id="Shape" fill="#2B2A29"></path>
            </g>
        </g>
    </g>
</svg>